<svg width="25" height="22" viewBox="0 0 25 22" fill="none" xmlns="http://www.w3.org/2000/svg">
<path d="M16.9336 21.4961C17.1224 21.1901 17.2656 20.8646 17.3633 20.5195C17.4609 20.181 17.5098 19.8197 17.5098 19.4355V5.31445H22.4316C23.0176 5.31445 23.4798 5.5 23.8184 5.87109C24.1569 6.23568 24.3262 6.73698 24.3262 7.375V19.4355C24.3262 20.0736 24.1569 20.5749 23.8184 20.9395C23.4798 21.3105 23.0176 21.4961 22.4316 21.4961H16.9336ZM19.7656 10.3535C19.7656 10.5814 19.8796 10.6953 20.1074 10.6953H21.6992C21.9271 10.6953 22.041 10.5814 22.041 10.3535V8.80078C22.041 8.57943 21.9271 8.46875 21.6992 8.46875H20.1074C19.8796 8.46875 19.7656 8.57943 19.7656 8.80078V10.3535ZM19.7656 14.1816C19.7656 14.403 19.8796 14.5137 20.1074 14.5137H21.6992C21.9271 14.5137 22.041 14.403 22.041 14.1816V12.6289C22.041 12.4076 21.9271 12.2969 21.6992 12.2969H20.1074C19.8796 12.2969 19.7656 12.4076 19.7656 12.6289V14.1816ZM19.7656 18C19.7656 18.2279 19.8796 18.3418 20.1074 18.3418H21.6992C21.9271 18.3418 22.041 18.2279 22.041 18V16.457C22.041 16.2292 21.9271 16.1152 21.6992 16.1152H20.1074C19.8796 16.1152 19.7656 16.2292 19.7656 16.457V18ZM0.664062 19.4355V2.48242C0.664062 1.8444 0.830078 1.3431 1.16211 0.978516C1.50065 0.607422 1.9694 0.421875 2.56836 0.421875H14.1602C14.7591 0.421875 15.2279 0.607422 15.5664 0.978516C15.9049 1.3431 16.0742 1.8444 16.0742 2.48242V19.4355C16.0742 20.0736 15.9049 20.5749 15.5664 20.9395C15.2279 21.3105 14.7591 21.4961 14.1602 21.4961H2.56836C1.9694 21.4961 1.50065 21.3105 1.16211 20.9395C0.830078 20.5749 0.664062 20.0736 0.664062 19.4355ZM4.90234 19.748H11.9043V16.6816C11.9043 16.4538 11.8327 16.2715 11.6895 16.1348C11.5527 15.998 11.3574 15.9297 11.1035 15.9297H5.6543C5.43294 15.9297 5.25065 15.998 5.10742 16.1348C4.9707 16.2715 4.90234 16.4538 4.90234 16.6816V19.748ZM4.63867 5.82227C4.63867 6.10221 4.77214 6.24219 5.03906 6.24219H7.01172C7.28516 6.24219 7.42188 6.10221 7.42188 5.82227V3.95703C7.42188 3.67708 7.28516 3.53711 7.01172 3.53711H5.03906C4.77214 3.53711 4.63867 3.67708 4.63867 3.95703V5.82227ZM9.38477 5.82227C9.38477 6.10221 9.51823 6.24219 9.78516 6.24219H11.7578C12.0312 6.24219 12.168 6.10221 12.168 5.82227V3.95703C12.168 3.67708 12.0312 3.53711 11.7578 3.53711H9.78516C9.51823 3.53711 9.38477 3.67708 9.38477 3.95703V5.82227ZM4.63867 9.81641C4.63867 10.0898 4.77214 10.2266 5.03906 10.2266H7.01172C7.28516 10.2266 7.42188 10.0898 7.42188 9.81641V7.94141C7.42188 7.66797 7.28516 7.53125 7.01172 7.53125H5.03906C4.77214 7.53125 4.63867 7.66797 4.63867 7.94141V9.81641ZM9.38477 9.81641C9.38477 10.0898 9.51823 10.2266 9.78516 10.2266H11.7578C12.0312 10.2266 12.168 10.0898 12.168 9.81641V7.94141C12.168 7.66797 12.0312 7.53125 11.7578 7.53125H9.78516C9.51823 7.53125 9.38477 7.66797 9.38477 7.94141V9.81641ZM4.63867 13.8105C4.63867 14.084 4.77214 14.2207 5.03906 14.2207H7.01172C7.28516 14.2207 7.42188 14.084 7.42188 13.8105V11.9355C7.42188 11.6621 7.28516 11.5254 7.01172 11.5254H5.03906C4.77214 11.5254 4.63867 11.6621 4.63867 11.9355V13.8105ZM9.38477 13.8105C9.38477 14.084 9.51823 14.2207 9.78516 14.2207H11.7578C12.0312 14.2207 12.168 14.084 12.168 13.8105V11.9355C12.168 11.6621 12.0312 11.5254 11.7578 11.5254H9.78516C9.51823 11.5254 9.38477 11.6621 9.38477 11.9355V13.8105Z" fill="#3D9AFF"/>
</svg>
