<svg width="21" height="16" viewBox="0 0 21 16" fill="none" xmlns="http://www.w3.org/2000/svg">
<path d="M3.76758 12.4707H5.9209C6.17871 12.4707 6.38672 12.3916 6.54492 12.2334C6.70312 12.0752 6.78223 11.873 6.78223 11.627V10.001C6.78223 9.74902 6.70312 9.54688 6.54492 9.39453C6.38672 9.23633 6.17871 9.15723 5.9209 9.15723H3.76758C3.50977 9.15723 3.30176 9.23633 3.14355 9.39453C2.98535 9.54688 2.90625 9.74902 2.90625 10.001V11.627C2.90625 11.873 2.98535 12.0752 3.14355 12.2334C3.30176 12.3916 3.50977 12.4707 3.76758 12.4707ZM0.102539 5.76465H20.8975V3.70801H0.102539V5.76465ZM2.98535 15.2656C2.03613 15.2656 1.31836 15.0254 0.832031 14.5449C0.345703 14.0645 0.102539 13.3555 0.102539 12.418V2.91699C0.102539 1.97363 0.345703 1.26172 0.832031 0.78125C1.31836 0.300781 2.03613 0.0605469 2.98535 0.0605469H18.0146C18.9639 0.0605469 19.6816 0.303711 20.168 0.790039C20.6543 1.27051 20.8975 1.97949 20.8975 2.91699V12.418C20.8975 13.3555 20.6543 14.0645 20.168 14.5449C19.6816 15.0254 18.9639 15.2656 18.0146 15.2656H2.98535Z" fill="#3D9AFF"/>
</svg>
